# Blender v2.79 (sub 0) OBJ File: 'rocketlauncher.blend'
# www.blender.org
o Cube
v 8.242784 -1.000000 -1.000000
v 8.242784 -1.000000 1.000000
v -1.000000 -1.000000 1.000000
v -1.000000 -1.000000 -1.000000
v 0.602403 -1.000000 -1.000000
v 0.602403 -1.000000 1.000000
v 0.254047 -1.000000 -1.000000
v 0.254046 -1.000000 1.000000
v 1.001563 -1.000000 -1.000000
v 1.001563 -1.000000 1.000000
v 1.447642 -1.000000 -1.000000
v 1.447641 -1.000000 1.000000
v 1.399189 -0.855175 -0.782763
v 1.050016 -0.855175 -0.782763
v 1.399189 -0.855175 0.782763
v 1.050015 -0.855175 0.782763
v 0.558889 -0.833449 -0.750173
v 0.558888 -0.833449 0.750173
v 0.297561 -0.833449 -0.750173
v 0.297561 -0.833449 0.750173
v 8.242783 0.789333 -0.105333
v 8.242783 0.805077 0.097462
v -1.880026 0.843885 0.078057
v -1.880687 0.845271 -0.077365
v -0.276706 0.841964 -0.079018
v -0.276706 0.841964 0.079018
v -0.625979 0.843885 0.078057
v -0.626641 0.845271 -0.077365
v 0.122454 0.841964 0.079018
v 0.122454 0.841964 -0.079018
v 0.593652 0.789333 -0.105333
v 0.586137 0.805077 0.097461
v 0.737551 0.558845 0.075753
v 0.758254 0.584187 -0.107430
v 0.180575 0.570788 0.069781
v 0.180575 0.570788 -0.069781
v -0.065708 0.537895 -0.073039
v -0.069354 0.533116 0.066890
v -0.572616 0.534304 -0.066297
v -0.571861 0.533116 0.066890
vn 0.0000 -1.0000 0.0000
vn -0.0000 0.4472 0.8944
vn 0.0000 0.4472 -0.8944
vn -0.8183 -0.5124 0.2603
vn -0.8266 -0.5087 -0.2407
vn 0.8510 0.5126 -0.1145
vn 0.8665 0.4967 -0.0490
vn -0.9675 -0.2528 -0.0000
vn -0.8579 -0.4873 -0.1628
vn -0.9483 -0.3173 -0.0000
vn -0.8064 -0.5149 0.2910
vn 1.0000 0.0000 -0.0000
vn -0.9025 -0.4307 -0.0000
vn -0.0099 0.4406 -0.8976
vn 0.8510 0.5126 0.1145
vn 0.9483 -0.3173 0.0000
vn -0.0429 0.4172 -0.9078
vn 0.9675 -0.2528 0.0000
vn 0.8664 0.4969 0.0495
vn -0.0000 1.0000 0.0089
vn 0.0000 1.0000 0.0000
vn -0.8259 -0.5635 -0.0191
vn 0.9778 0.2096 0.0000
vn 0.0000 0.9970 -0.0774
vn 0.0009 0.9969 0.0783
vn -0.8188 -0.5693 -0.0740
vn -0.0034 0.9998 0.0218
vn 0.9852 0.1714 -0.0033
s off
f 7//1 8//1 3//1 4//1
f 2//2 22//2 32//2 12//2
f 28//3 7//3 4//3 24//3
f 8//2 27//2 23//2 3//2
f 10//2 29//2 26//2 6//2
f 25//4 5//4 17//4 37//4
f 6//5 26//5 38//5 18//5
f 9//1 10//1 6//1 5//1
f 9//6 30//6 36//6 14//6
f 7//7 28//7 39//7 19//7
f 5//8 6//8 18//8 17//8
f 12//9 32//9 33//9 15//9
f 11//10 12//10 15//10 13//10
f 31//11 11//11 13//11 34//11
f 1//12 21//12 22//12 2//12
f 3//13 23//13 24//13 4//13
f 1//1 2//1 12//1 11//1
f 13//1 15//1 16//1 14//1
f 37//14 17//14 19//14 39//14
f 15//2 33//2 35//2 16//2
f 29//15 10//15 16//15 35//15
f 10//16 9//16 14//16 16//16
f 34//17 13//17 14//17 36//17
f 18//2 38//2 40//2 20//2
f 17//1 18//1 20//1 19//1
f 30//3 9//3 5//3 25//3
f 8//18 7//18 19//18 20//18
f 27//19 8//19 20//19 40//19
f 28//20 24//20 23//20 27//20
f 30//21 25//21 26//21 29//21
f 38//22 26//22 25//22 37//22
f 36//23 30//23 29//23 35//23
f 21//24 31//24 32//24 22//24
f 34//25 36//25 35//25 33//25
f 33//26 32//26 31//26 34//26
f 37//27 39//27 40//27 38//27
f 39//28 28//28 27//28 40//28
f 21//3 1//3 11//3 31//3
